<svg width="250" height="250" viewBox="0 0 250 250" fill="none" xmlns="http://www.w3.org/2000/svg">
<rect width="250" height="250" fill="white"/>
<path d="M125 67.2844C107.283 67.2844 91.4287 75.2648 80.859 87.8232L86.6049 92.6684L93.5745 98.529C101.112 89.5867 112.391 83.9043 125 83.9043C144.809 83.9043 161.338 97.9234 165.222 116.574C165.789 119.299 166.091 122.114 166.091 125C166.091 133.639 163.413 141.673 158.855 148.282C151.46 159.041 139.046 166.095 125 166.095C123.12 166.095 121.258 165.97 119.449 165.721C101.183 163.263 86.7291 148.78 84.2817 130.522L75.2549 131.751C78.252 154.071 95.9155 171.742 118.225 174.752L117.215 182.216C119.768 182.572 122.375 182.733 125.018 182.733C144.756 182.733 162.171 172.829 172.599 157.723L166.392 153.465C171.961 145.378 175.224 135.581 175.224 125.017C175.224 121.49 174.851 118.035 174.178 114.721L181.555 113.172C176.093 86.9682 152.861 67.2844 125.035 67.2844H125Z" fill="#040000"/>
<path d="M201.045 100.097L188.879 107.08C190.475 112.78 191.327 118.783 191.327 125C191.327 161.642 161.622 191.337 124.982 191.337C88.3429 191.337 58.6555 161.642 58.6555 125C58.6555 118.694 59.5422 112.584 61.1915 106.795L49.0434 99.8301C46.4188 107.739 45 116.201 45 125C45 169.177 80.8235 205 125 205C169.176 205 205 169.177 205 125C205 116.307 203.617 107.935 201.045 100.097Z" fill="#040000"/>
<path d="M125 58.6631C154.226 58.6631 179.037 77.563 187.868 103.802L199.91 96.8905C188.56 66.5722 159.298 45.0002 125 45.0002C90.7014 45.0002 61.6169 66.4475 50.1782 96.6411L62.2022 103.535C71.1403 77.4384 95.8798 58.6631 125 58.6631Z" fill="#040000"/>
<path d="M149.722 119.816C150.076 121.491 150.254 123.219 150.254 125C150.254 130.308 148.622 135.243 145.82 139.304C141.262 145.913 133.654 150.242 125 150.242C123.847 150.242 122.694 150.17 121.577 150.01C110.351 148.496 101.466 139.607 99.9766 128.385C99.817 127.28 99.7461 126.14 99.7461 125C99.7461 118.801 101.981 113.136 105.687 108.736C110.316 103.232 117.25 99.7407 125 99.7407C137.166 99.7407 147.345 108.362 149.722 119.816Z" fill="#040000"/>
</svg>
